<svg width="25" height="25" fill="none" xmlns="http://www.w3.org/2000/svg"><path fill-rule="evenodd" clip-rule="evenodd" d="M12.5 0C5.596 0 0 5.596 0 12.5S5.596 25 12.5 25 25 19.404 25 12.5 19.404 0 12.5 0ZM9.752 5.874c.711-.033.938-.04 2.749-.04h-.002c1.81 0 2.037.007 2.748.04.71.032 1.195.144 1.62.31.439.17.81.397 1.18.768.371.37.599.743.77 1.181.164.424.276.908.31 1.618.032.711.04.938.04 2.749 0 1.81-.009 2.037-.04 2.748-.034.71-.146 1.194-.31 1.618-.171.439-.399.81-.77 1.181-.37.371-.741.6-1.18.77-.424.165-.909.277-1.619.31-.71.032-.937.04-2.748.04-1.81 0-2.038-.008-2.749-.04-.71-.033-1.194-.145-1.618-.31a3.265 3.265 0 0 1-1.18-.77 3.267 3.267 0 0 1-.77-1.18c-.164-.425-.277-.91-.31-1.619-.031-.71-.04-.937-.04-2.748 0-1.81.009-2.038.04-2.75.033-.709.145-1.193.31-1.617.171-.438.399-.81.77-1.181.37-.37.742-.598 1.18-.769.425-.165.91-.277 1.619-.31Z" fill="#6FA2A7"/><path fill-rule="evenodd" clip-rule="evenodd" d="M11.903 7.035h.598c1.78 0 1.991.006 2.694.038.65.03 1.003.138 1.238.23.31.12.533.265.766.498.233.233.378.456.499.767.091.235.2.587.23 1.237.031.703.038.914.038 2.693 0 1.78-.007 1.99-.039 2.694-.03.65-.138 1.002-.23 1.237-.12.311-.265.533-.498.766a2.062 2.062 0 0 1-.766.498c-.235.092-.588.2-1.238.23-.703.032-.914.04-2.694.04-1.78 0-1.991-.008-2.694-.04-.65-.03-1.003-.138-1.238-.23a2.064 2.064 0 0 1-.767-.498 2.066 2.066 0 0 1-.498-.767c-.092-.234-.2-.587-.23-1.237-.032-.703-.038-.914-.038-2.694 0-1.78.006-1.99.038-2.693.03-.65.138-1.003.23-1.238.12-.311.265-.533.498-.767.234-.233.456-.378.767-.499.235-.091.588-.2 1.238-.23.615-.027.853-.036 2.096-.037v.002Zm4.157 1.107a.8.8 0 1 0 0 1.6.8.8 0 0 0 0-1.6ZM9.077 12.5a3.424 3.424 0 1 1 6.848 0 3.424 3.424 0 0 1-6.848 0Z" fill="#6FA2A7"/><path fill-rule="evenodd" clip-rule="evenodd" d="M12.5 10.278a2.222 2.222 0 1 1 0 4.444 2.222 2.222 0 0 1 0-4.444Z" fill="#6FA2A7"/></svg>