<svg width="25" height="25" fill="none" xmlns="http://www.w3.org/2000/svg"><path fill-rule="evenodd" clip-rule="evenodd" d="M12.5 25C19.404 25 25 19.404 25 12.5S19.404 0 12.5 0 0 5.596 0 12.5 5.596 25 12.5 25Z" fill="#6FA2A7"/><path fill-rule="evenodd" clip-rule="evenodd" d="M12.912 19.454h-.003a7.427 7.427 0 0 1-3.552-.904l-3.94 1.033 1.054-3.851a7.42 7.42 0 0 1-.992-3.716c.001-4.099 3.336-7.433 7.433-7.433 1.988.001 3.854.775 5.258 2.18a7.387 7.387 0 0 1 2.175 5.258c-.002 4.098-3.335 7.432-7.433 7.433Zm-3.373-2.25.226.134c.949.563 2.036.86 3.144.861h.003a6.187 6.187 0 0 0 6.178-6.178 6.14 6.14 0 0 0-1.808-4.37 6.136 6.136 0 0 0-4.368-1.812 6.187 6.187 0 0 0-6.18 6.177c0 1.168.326 2.304.944 3.288l.147.234-.624 2.28 2.338-.614Zm7.118-3.415c-.047-.077-.17-.124-.356-.217-.186-.093-1.099-.542-1.27-.604-.17-.062-.293-.093-.417.093s-.48.604-.588.728c-.108.124-.217.14-.402.047-.186-.093-.785-.29-1.494-.922a5.6 5.6 0 0 1-1.033-1.287c-.109-.186-.012-.286.081-.379.084-.083.186-.217.279-.325.093-.109.123-.186.185-.31s.031-.232-.015-.325-.418-1.007-.573-1.38c-.15-.362-.303-.312-.418-.318a7.385 7.385 0 0 0-.355-.007.682.682 0 0 0-.496.233c-.17.186-.65.635-.65 1.549 0 .914.666 1.797.759 1.921.092.124 1.31 2 3.172 2.805.443.191.79.305 1.06.39.444.142.849.122 1.169.074.357-.053 1.099-.449 1.254-.883.154-.434.154-.805.108-.883Z" fill="#FDFDFD"/></svg>