<svg xmlns="http://www.w3.org/2000/svg" xml:space="preserve" style="shape-rendering:geometricPrecision;text-rendering:geometricPrecision;image-rendering:optimizeQuality;fill-rule:evenodd;clip-rule:evenodd" viewBox="0 0 1777.98 423.32" fill="#fff"><path d="M50.52 337.35V82.86c0-20.23 13.86-34.09 34.09-34.09h249.95c22.88 0 38.63 11.42 38.63 34.09v256.76c0 13.54-13.34 29.54-27.27 29.54H77.79c-13.49 0-27.27-13.57-27.27-31.81zM16.44 80.59v252.22c0 44.92 27.79 72.71 72.71 72.71h240.86c41.06 0 74.99-22.64 74.99-59.08V71.5c0-27.7-29.69-56.81-63.63-56.81H77.79c-8.45 0-19.21 4.08-25.06 6.76-13.59 6.22-25.21 18.98-30.93 32.69-2.96 7.09-5.36 17.36-5.36 26.45z" class="fil0"/><path d="M143.69 269.18V148.75c0-5.31 3.77-9.09 9.09-9.09h118.15c5.32 0 9.09 3.78 9.09 9.09v120.43c0 5.32-3.77 9.09-9.09 9.09H152.78c-5.32 0-9.09-3.77-9.09-9.09zm-31.81-127.24v140.88c0 13.65 13.61 27.26 27.26 27.26H282.3c17.78 0 29.53-11.75 29.53-29.53V139.66c0-17.78-11.75-29.53-29.53-29.53H141.41c-19.26 0-29.53 12.77-29.53 31.81z" class="fil1"/><path d="M643.59 116.94c2.89-6.03 2.07-2.43 2.27-11.36h-27.27v115.89h27.27V153.3c0-27.48 18.51-25 34.08-25 5.12 7.64 9.09 8.49 9.09 27.27v65.9h27.27v-72.72c0-23.2 40.9-32.74 40.9 2.28v70.44h27.27c0-28.98 4.87-87.59-8.57-105.05-16.94-22-59-14.2-64.15 5.07-.08-.06-27.53-32.9-55.96-12.79-7.3 5.16-2.86 5.75-12.2 8.24zM829.91 164.66c0-48.43 59.08-46.93 59.08-4.55 0 17.82-3.32 38.63-29.54 38.63-16.55 0-29.54-16.96-29.54-34.08zm0-45.45c.35-15.47 9.01-13.63-24.99-13.63V260.1h27.26v-43.18c0-8.69.7-.83-2.27-6.82 9.72 2.6 5.96 4.78 13.59 9.14 42.37 24.22 99.93-39.67 59.21-97.84-7.48-10.68-23.72-18.09-40.99-18.09-19.22 0-21.05 8.7-31.81 15.9z" class="fil2"/><path d="M1486.6 117.48c-.41-.52-.97-1.19-1.2-1.57l-3.35-6.85-19.82-.25c2.69 13.45 2.11 96.69-.61 109.34l22.7.86c-3.02-13.37-2.12-48.43-1.39-63.54.37-7.7 2.21-15.33 6.95-21.31l2.25-2.62c9.96-11.04 41.31-19.27 41.24 26.28-.03 19.6 1.23 42.29-1.33 60.79l22.15.1c-1.87-16.06-.94-31.09-.7-47.23.03-1.74 2.19-48.88 3.56-31.82l3.71-2.48c19.74-17.18 36.91-10.16 39.36 11.67 2.12 18.9.09 52.17.09 72.62h25c0-50.22 14.26-117.84-36.32-118.3-13.91-.13-30.4 4.37-34.12 18.32h-4.55c-3.14-11.78-14.35-18.18-29.5-18.32-19.14-.18-23.58 5.64-34.12 14.31z" class="fil0"/><path d="M1213.93 221.47h29.54v-70.44c0-22.89 47.71-42.66 47.71 4.54v65.9h27.27c0-29.12 4.88-87.48-8.56-105.05-9.07-11.86-23.03-13.11-36.88-13.11-19.23 0-21.06 8.7-31.82 15.9 4.45-19.07 2.28-41.5 2.28-61.35h-29.54v163.61z" class="fil1"/><path d="M545.88 126.03c23.23 0 25.01 15.55 29.54 25h-56.81c2.71-5.65 7.03-25 27.27-25zm-54.54 36.36c0 79.84 104.61 76.31 109.07 22.72l-24.95 2.83c-10.12 16.9-47.17 25.07-56.85-16.46h84.08c0-26-5.98-48.69-26.85-61.78-10.57-6.63-22.13-6.39-34.51-6.39-17.69 0-26.7 9.25-35.84 18.69-4.95 5.11-7.58 9.72-10.01 17.26-.76 2.39-4.14 19.78-4.14 23.13zM1695.65 126.03c8.22 0 14.57 2.63 19.96 7.3 6.6 5.73 6 10.23 9.58 17.7h-56.81c3.03-6.32 3.16-11.38 8.41-16.59 3.92-3.91 11.82-8.41 18.86-8.41zm-54.54 36.36c0 34.06 22.44 61.35 52.27 61.35 28.63 0 49.62-7.8 56.8-38.63-9.25 2.15-15.5 4.56-24.99 0-15.23 28.77-54.22 17.49-56.81-13.63h84.07c0-16.74-4.49-37.32-11.92-47.16-27.11-35.91-81.5-23.32-94.66 13.29-1.89 5.27-4.76 18.13-4.76 24.78zM1388.89 126.03c8.33 0 13.11 2.93 17.72 7.28 7.15 6.75 7.08 7.13 9.55 17.72h-54.54c2.31-9.92 1.83-9.98 8.43-16.58 5.02-5.02 9.71-8.42 18.84-8.42zm-54.53 29.54v15.91c0 26.01 24.2 52.26 49.99 52.26 27.78 0 56.17-10.29 56.8-38.63-5.84 3.29-6.09 2.27-15.9 2.27-8.69 0-.83.7-6.82-2.27-4.66 6.95-8.67 15.91-24.99 15.91-18.77 0-31.41-11.1-31.82-29.54h81.81c0-101.38-109.07-76.43-109.07-15.91zM1050.32 219.19c0 8.69-9.86 17.09-13.63 22.73h-20.45v22.72c13.77.31 31.74 5.61 45.93-13.14l58.59-145.92h-29.54c-3.92 16.86-24.69 63.87-24.99 77.26-7.77-8.94-27.51-68.54-29.54-77.26h-29.54l32.09 83.8c1.82 4.94 11.08 25.11 11.08 29.81zM1145.76 105.58h-18.18v22.72h18.18c0 57.17-10.02 95.44 36.35 95.44 7.84 0 8.8-1.68 15.91-2.27v-22.73h-20.45c-8.05-15.22-4.54-44.72-4.54-70.44h24.99v-22.72h-24.99V76.04h-27.27v29.54zM943.53 105.58h-20.45v22.72h20.45c0 53.77-9.97 95.44 31.81 95.44 11.42 0 10.17-2.05 20.45-2.27v-22.73h-22.72c-7.57-15.76-4.55-47.58-4.55-70.44h27.27v-22.72h-27.27V76.04h-24.99v29.54zM1620.66 362.35h11.36l2.28-27.27c0 9.08 5.81 21.08 9.09 27.27h11.36c.92-11.13 6.81-17.64 6.81-27.27l2.28 27.27h11.36v-52.27h-13.64c-3.41 7.12-10.61 25.06-11.36 34.09h-4.54c-.75-9.03-7.95-26.97-11.36-34.09h-13.64v52.27z" class="fil2"/><path d="M507.25 362.35h6.82c.97-11.72 6.81-18.63 6.81-31.81h2.28c0 9.27 5.92 21.12 6.81 31.81h11.36c2.61-5.42 11.37-43.76 11.37-52.27-11.29.26-9.46-.71-11.6 11.13-1.08 6.01-4.31 14.85-4.31 20.69h-2.27c0-9.69-4.74-22.9-6.82-31.82h-11.36c-.98 11.72-6.82 18.63-6.82 31.82h-2.27c0-6.93-1.67-12.19-3.14-19.58-2.13-10.7-.66-11.97-12.77-12.24.2 8.8 3.36 19.08 5.45 28.64.98 4.49 2.49 9.88 3.06 12.85 1.31 6.91-.19 10.78 7.4 10.78z" class="fil3"/><path d="M1557.05 139.66c-1.37-17.06-3.53 30.08-3.56 31.82-.24 16.14-1.17 31.17.7 47.23l-22.15-.1c2.56-18.5 1.3-41.19 1.33-60.79.07-45.55-31.28-37.32-41.24-26.28l-2.25 2.62c-4.74 5.98-6.58 13.61-6.95 21.31-.73 15.11-1.63 50.17 1.39 63.54l-22.7-.86c2.72-12.65 3.3-95.89.61-109.34l19.82.25 3.35 6.85c.23.38.79 1.05 1.2 1.57v-11.9h-27.27v115.89h27.27c0-23.14-2.93-65.62 4.46-81.88 7.33-16.12 28.93-16.64 35.88-3.91 5.36 9.81 2.83 71.99 2.83 85.79h27.27l.01-81.81z" class="fil4"/><path d="M1227.56 332.81h-13.63v-13.64h13.63c1.48 6.38 2.81 7.35 0 13.64zm-25 29.54h11.37V341.9c7.52 2.01 6.14 1.99 15.9 20.45h11.36l-11.36-22.73c22.08-5.89 4.13-26.77 2.27-29.54h-29.54v52.27zM827.64 332.81h-13.63v-13.64h13.63c1.49 6.38 2.81 7.35 0 13.64zm-24.99 29.54h11.36V341.9c7.87 2.1 10.98 9.07 13.63 20.45h13.63c-4.32-8.17-9.06-12.87-11.36-22.73 6.72-1.79 3.69-.92 9.09-4.54V316.9c-11.09-9.62-7.44-6.82-36.35-6.82v52.27z" class="fil5"/><path d="M698.12 346.44v-27.27c34.03 0 23.73 27.99 13.19 31.49-7.74 2.57-13.19 3.23-13.19-4.22zm-9.09 15.91c18.39 0 40.31 2.86 42.81-25.46 2.68-30.34-30.26-26.81-42.81-26.81v52.27zM577.69 337.35v-11.36c9.19-7.97 5.73-6.82 20.45-6.82 23.7 35.4-20.45 46.29-20.45 18.18zm-11.36-4.54c0 42.2 49.99 35.85 49.99 4.54 0-38.6-49.99-33.47-49.99-4.54zM652.68 332.81h-9.09v-13.64h9.09c5.23 0 6.81 1.59 6.81 6.82 0 5.24-1.58 6.82-6.81 6.82zm-18.18-13.64c0 52.86-5.56 42.85 9.09 43.18V341.9c9.58 2.56 4.64.99 9.17 9 2.33 4.11 4.23 6.71 6.73 11.45h11.36c-2.47-9.26-8.89-13.47-11.36-22.73 24.2-6.46 2.62-29.01 2.27-29.54-37.86 0-27.26-.88-27.26 9.09z" class="fil3"/><path d="M1504.78 362.35c15.06-.34 9.09 5.1 9.09-22.73 31.04 0 22.72-5.11 22.72 22.73h11.36v-52.27h-11.36c0 25.22 7.82 20.46-22.72 20.46v-20.46h-9.09v52.27z" class="fil5"/><path d="M1384.35 332.81h-9.09v-13.64h9.09c5.23 0 6.81 1.59 6.81 6.82 0 5.24-1.58 6.82-6.81 6.82zm-18.18 29.54h9.09V341.9c6.93 1.85 6.15 2.93 9.61 8.56 2.69 4.38 4.09 7.73 6.29 11.89h11.36c-2.47-9.26-8.88-13.47-11.36-22.73 17.93-4.78 12.87-29.54-4.54-29.54h-20.45v52.27zM1568.4 362.35h34.08c-.49-22.15-2.39-2.03-24.99-11.36 2.89-6.04 2.07-2.44 2.27-11.37h20.45v-9.08h-20.45v-11.37h22.72v-9.09h-34.08v52.27zM1158.66 339.62c.6-3.56.81-6.69 2.04-10.1 2.87-7.95 1.82-3.75 4.04-6.57l3.78 16.67-2.9 1.67c-11.91 2.53-6.97-1.64-6.96-1.67zm-17.45 22.73h11.37c.19-8.93-.63-5.33 2.27-11.36h18.18c.51 6.13 1.06 6.18 2.27 11.36h11.36c-4-17.17-11.69-34.17-15.91-52.27h-13.63l-15.91 52.27z" class="fil3"/><path d="M963.98 316.9v15.91c4.63 2.45 9.15 4.73 13.95 6.49 9.27 3.41 10.16 1.07 11.04 11.69-7.64 1.82-14.47 7.05-18.18-6.82-7.94 2.12-5.1.86-9.09 6.82 20.4 30.46 58.79-6.78 26.45-19.64-10.67-4.24-12.41.1-15.08-9.9 12.1-6.81 15.32 2.27 18.17 2.27 8.69 0 .83.7 6.82-2.27-2.06-7.71-5.28-11.13-14.74-12.29-10.91-1.34-12.47 3.14-19.34 7.74z" class="fil6"/><path d="M909.44 325.99c0 14.22 19.78 10.23 27.27 20.45-7.86 11.74-14.92 8.19-20.45-2.27l-9.02 4.67c11.61 21.96 38.56 15.82 38.56-2.4v-9.09c-18.15-12.15-21.47-2.68-25-15.9 17.18-9.66 1.73 5.42 25 0-14.93-22.3-36.36-11.93-36.36 4.54z" class="fil3"/><path d="M1695.65 362.35h34.08c-.41-18.39-2.67-6.76-18.3-9.04-9.02-1.31-8.35-13.69.12-13.69h13.64v-9.08h-20.45c.3-13.42-.85-11.37 24.99-11.37v-9.09h-34.08v52.27z" class="fil6"/><path d="M1041.23 316.9c0 10.81-.8 22.85 25 25-.46 20.37-15.75 11.38-18.18 2.27-7.94 2.12-5.1.86-9.09 6.82 20.41 30.48 58.96-6.72 26.45-19.64-10.67-4.24-12.42.1-15.09-9.9 12.11-6.81 15.33 2.27 18.18 2.27 8.69 0 .83.7 6.82-2.27-5.97-22.34-25.61-10.22-34.09-4.55z" class="fil3"/><path d="M1313.91 362.35h34.08c-.3-13.34.81-10.42-9.13-9.35-16.38 1.77-15.86-.07-15.86-13.38h20.45v-9.08H1323v-11.37c4.05 0 12.65.56 16.09.19 10.41-1.09 4.02 2.22 8.9-7-7.78-4.38-24.64-2.28-34.08-2.28v52.27zM859.45 362.35h34.09c-.3-13.34.81-10.42-9.13-9.35-16.38 1.77-15.87-.07-15.87-13.38h20.45v-9.08h-20.45v-11.37h25c-4.31-10.41 8.94-9.09-34.09-9.09v52.27zM768.56 332.81h-9.09v-13.64c8.97 0 9.22.72 15.91 2.28-.16 7.28.74 11.36-6.82 11.36zm-18.18 29.54h9.09c0-29.45.01-15.22 14-19.93 20.42-6.86 11-22.15 4.18-32.34h-27.27v52.27z" class="fil6"/><path d="M1088.95 319.17h15.91v43.18h11.36v-43.18h13.63v-9.09h-40.9z" class="fil5"/><path d="M1445.7 319.17h15.9v43.18h11.37v-34.09c0-8.5-7.78-9.09 13.63-9.09v-9.09h-40.9v9.09z" class="fil3"/><path d="M1254.83 319.17h15.9v43.18h9.09v-43.18h15.91v-9.09h-40.9z" class="fil7"/><path d="M1158.66 339.62c3.63-3.62 3 5.67 3-6.81h2.28c0 11.73-.34 4.85 4.58 6.81l-3.78-16.67c-2.22 2.82-1.17-1.38-4.04 6.57-1.23 3.41-1.44 6.54-2.04 10.1z" class="fil8"/><path d="m1327.54 348.71.68-.67c-.05.04-.91.45-.68.67z" class="fil9"/></svg>