<svg width="0" height="0" fill="none" style="visibility: hidden; position: absolute;" aria-hidden="true">
    <symbol id="arrow-left" viewBox="0 0 24 24" fill="none" xmlns="http://www.w3.org/2000/svg">
        <path d="M21 12L3.5 12" stroke="#1F1F1F" stroke-width="2" stroke-linecap="round" stroke-linejoin="round"/>
        <path d="M10 5L3 12L10 19" stroke="#1F1F1F" stroke-width="2" stroke-linecap="round" stroke-linejoin="round"/>
    </symbol>
    <symbol id="arrow-right" viewBox="0 0 24 24" fill="none" xmlns="http://www.w3.org/2000/svg">
        <path d="M3 12L20.5 12" stroke="#1F1F1F" stroke-width="2" stroke-linecap="round" stroke-linejoin="round"/>
        <path d="M14 19L21 12L14 5" stroke="#1F1F1F" stroke-width="2" stroke-linecap="round" stroke-linejoin="round"/>
    </symbol>
    <symbol id="minus" viewBox="0 0 36 36" fill="none" xmlns="http://www.w3.org/2000/svg">
        <path d="M29.4889 18.7666H6.51135V17.2334H29.4889V18.7666Z" fill="#1F1F1F"/>
    </symbol>
    <symbol id="plus" viewBox="0 0 36 36" fill="none" xmlns="http://www.w3.org/2000/svg">
        <path d="M18.7653 17.2334H29.4889V18.7666H18.7653V29.5H17.233V18.7666H6.51135V17.2334H17.233V6.5H18.7653V17.2334Z" fill="#1F1F1F"/>
    </symbol>
    <symbol id="star-filled" width="13" height="13" viewBox="0 0 13 13" fill="none" xmlns="http://www.w3.org/2000/svg">
        <mask id="mask0_0_216__star-filled" style="mask-type:alpha" maskUnits="userSpaceOnUse" x="0" y="0" width="13" height="13">
            <rect width="13" height="13" fill="#D9D9D9"/>
        </mask>
        <g mask="url(#mask0_0_216__star-filled)">
            <path d="M3.20251 11.3073L4.07595 7.55628L1.16449 5.03753L5.00355 4.70576L6.49991 1.17139L7.99626 4.70576L11.8353 5.03753L8.92386 7.55628L9.7973 11.3073L6.49991 9.3167L3.20251 11.3073Z" fill="#FFB800"/>
        </g>
    </symbol>
    <symbol id="star" width="13" height="13" viewBox="0 0 13 13" fill="none" xmlns="http://www.w3.org/2000/svg">
        <mask id="mask0_0_216__star" style="mask-type:alpha" maskUnits="userSpaceOnUse" x="0" y="0" width="13" height="13">
            <rect width="13" height="13" fill="#D9D9D9"/>
        </mask>
        <g mask="url(#mask0_0_216__star)">
            <path d="M3.20251 11.3073L4.07595 7.55628L1.16449 5.03753L5.00355 4.70576L6.49991 1.17139L7.99626 4.70576L11.8353 5.03753L8.92386 7.55628L9.7973 11.3073L6.49991 9.3167L3.20251 11.3073Z" fill="none" stroke="#FFB800" stroke-width="0.3" stroke-linejoin="miter" stroke-linecap="butt"/>
        </g>
    </symbol>
</svg>