<svg xmlns="http://www.w3.org/2000/svg" xmlns:xlink="http://www.w3.org/1999/xlink"><symbol id="minus"><g fill="none"><path fill="#000" fill-rule="evenodd" d="M.011 6c0-.197.095-.349.279-.447l.08-.043 2.565-.005 6.11-.006.08.043c.184.098.279.25.279.447a.483.483 0 0 1-.279.447l-.08.043-6.11.005L.37 6.49l-.08-.043A.483.483 0 0 1 .011 6Z"/></g></symbol><symbol id="plus"><g fill="none"><path fill="#000" fill-rule="evenodd" d="M5.854.028a.517.517 0 0 0-.325.326c-.022.062-.027.536-.028 2.611L5.5 5.499l-2.565.006L.37 5.51l-.08.043A.483.483 0 0 0 .011 6c0 .197.095.349.279.447l.08.043 2.565.005 2.564.006.006 2.564.005 2.565.043.08c.098.184.25.279.447.279a.483.483 0 0 0 .447-.279l.043-.08.005-2.565.006-2.564 2.564-.006 2.565-.005.08-.043A.483.483 0 0 0 11.989 6a.483.483 0 0 0-.279-.447l-.08-.043-2.565-.005-2.564-.006-.006-2.564L6.49.37 6.447.29c-.12-.224-.384-.34-.593-.262"/></g></symbol><symbol id="s-facebook"><g fill="none"><path fill-rule="evenodd" clip-rule="evenodd" d="M0 12.5C0 5.596 5.596 0 12.5 0S25 5.596 25 12.5 19.404 25 12.5 25 0 19.404 0 12.5Z" fill="#6FA2A7"/><path fill-rule="evenodd" clip-rule="evenodd" d="M13.803 19.85v-6.8h1.877l.25-2.345h-2.127l.003-1.172c0-.612.058-.94.936-.94h1.174V6.25h-1.878c-2.255 0-3.049 1.137-3.049 3.049v1.407H9.584v2.343h1.405v6.8h2.814Z" fill="#fff"/></g></symbol><symbol id="s-instagram"><g fill="none"><path fill-rule="evenodd" clip-rule="evenodd" d="M12.5 0C5.596 0 0 5.596 0 12.5S5.596 25 12.5 25 25 19.404 25 12.5 19.404 0 12.5 0ZM9.752 5.874c.711-.033.938-.04 2.749-.04h-.002c1.81 0 2.037.007 2.748.04.71.032 1.195.144 1.62.31.439.17.81.397 1.18.768.371.37.599.743.77 1.181.164.424.276.908.31 1.618.032.711.04.938.04 2.749 0 1.81-.009 2.037-.04 2.748-.034.71-.146 1.194-.31 1.618-.171.439-.399.81-.77 1.181-.37.371-.741.6-1.18.77-.424.165-.909.277-1.619.31-.71.032-.937.04-2.748.04-1.81 0-2.038-.008-2.749-.04-.71-.033-1.194-.145-1.618-.31a3.265 3.265 0 0 1-1.18-.77 3.267 3.267 0 0 1-.77-1.18c-.164-.425-.277-.91-.31-1.619-.031-.71-.04-.937-.04-2.748 0-1.81.009-2.038.04-2.75.033-.709.145-1.193.31-1.617.171-.438.399-.81.77-1.181a3.28 3.28 0 0 1 1.18-.769c.425-.165.91-.277 1.619-.31Z" fill="#6FA2A7"/><path fill-rule="evenodd" clip-rule="evenodd" d="M11.903 7.035h.598c1.78 0 1.991.006 2.694.038.65.03 1.003.138 1.238.23.31.12.533.265.766.498.233.233.378.456.499.767.091.235.2.587.23 1.237.031.703.038.914.038 2.693 0 1.78-.007 1.99-.039 2.694-.03.65-.138 1.002-.23 1.237-.12.311-.265.533-.498.766a2.062 2.062 0 0 1-.766.498c-.235.092-.588.2-1.238.23-.703.032-.914.04-2.694.04-1.78 0-1.991-.008-2.694-.04-.65-.03-1.003-.138-1.238-.23a2.064 2.064 0 0 1-.767-.498 2.066 2.066 0 0 1-.498-.767c-.092-.234-.2-.587-.23-1.237-.032-.703-.038-.914-.038-2.694 0-1.78.006-1.99.038-2.693.03-.65.138-1.003.23-1.238.12-.311.265-.533.498-.767a2.08 2.08 0 0 1 .767-.499c.235-.091.588-.2 1.238-.23.615-.027.853-.036 2.096-.037v.002Zm4.157 1.107a.8.8 0 1 0 0 1.6.8.8 0 0 0 0-1.6ZM9.077 12.5a3.424 3.424 0 1 1 6.848 0 3.424 3.424 0 0 1-6.848 0Z" fill="#6FA2A7"/><path fill-rule="evenodd" clip-rule="evenodd" d="M12.5 10.278a2.222 2.222 0 1 1 0 4.444 2.222 2.222 0 0 1 0-4.444Z" fill="#6FA2A7"/></g></symbol><symbol id="s-mail"><g fill="none"><path fill-rule="evenodd" clip-rule="evenodd" d="M12.5 25C19.404 25 25 19.404 25 12.5S19.404 0 12.5 0 0 5.596 0 12.5 5.596 25 12.5 25Z" fill="#6FA2A7"/><path fill-rule="evenodd" clip-rule="evenodd" d="M12.674 11.798c-.976 0-6.007-2.853-6.007-2.853V8.5a1 1 0 0 1 1-1H17.68a1 1 0 0 1 1.002 1l-.008.5s-4.976 2.798-6 2.798Zm0 1.376c1.07 0 6-2.674 6-2.674l.008 6a1 1 0 0 1-1.001 1H7.668a1 1 0 0 1-1.001-1l.008-6s5.023 2.674 6 2.674Z" fill="#fff"/></g></symbol><symbol id="s-print"><g fill="none"><path d="M4.667 16.667H2a1.333 1.333 0 0 1-1.333-1.334V10c0-.736.597-1.333 1.333-1.333h16c.736 0 1.333.597 1.333 1.333v5.333c0 .737-.596 1.334-1.333 1.334h-2.667m-10.666-8V2c0-.736.597-1.333 1.333-1.333h8c.736 0 1.333.597 1.333 1.333v6.667M4.667 14h10.666v5.333H4.667V14Z" stroke="#1B283D"/></g></symbol><symbol id="s-shows"><g fill="none"><path clip-rule="evenodd" d="M15.161 12.053a3.162 3.162 0 1 1-6.323-.001 3.162 3.162 0 0 1 6.323.001Z" stroke="#1B283D" stroke-linecap="round" stroke-linejoin="round"/><path clip-rule="evenodd" d="M11.998 19.355c3.808 0 7.291-2.738 9.252-7.302-1.961-4.564-5.444-7.302-9.252-7.302h.004c-3.808 0-7.291 2.738-9.252 7.302 1.961 4.564 5.444 7.302 9.252 7.302h-.004Z" stroke="#1B283D" stroke-linecap="round" stroke-linejoin="round"/></g></symbol><symbol id="s-twitter"><g fill="none"><path fill-rule="evenodd" clip-rule="evenodd" d="M12.5 0C5.596 0 0 5.596 0 12.5S5.596 25 12.5 25 25 19.404 25 12.5 19.404 0 12.5 0Zm-.348 10.593-.026-.433c-.08-1.12.612-2.145 1.705-2.542.402-.141 1.084-.159 1.53-.035.175.053.507.23.743.388l.428.291.473-.15c.262-.08.611-.212.769-.3.149-.08.28-.123.28-.097 0 .15-.324.662-.595.945-.367.397-.262.432.481.167.446-.15.455-.15.367.018-.052.088-.323.397-.612.68-.49.485-.516.538-.516.944 0 .627-.297 1.933-.594 2.648-.551 1.342-1.731 2.728-2.912 3.425-1.661.98-3.873 1.227-5.736.653-.62-.194-1.687-.688-1.687-.776 0-.027.324-.062.717-.071a4.924 4.924 0 0 0 2.343-.653l.472-.283-.542-.185c-.77-.265-1.46-.874-1.635-1.448-.052-.185-.035-.194.455-.194l.507-.009-.428-.203c-.508-.256-.97-.688-1.198-1.13-.166-.317-.376-1.12-.315-1.183.017-.026.201.027.41.098.604.22.683.167.333-.203-.656-.671-.857-1.669-.542-2.613l.149-.424.577.574c1.18 1.156 2.57 1.845 4.162 2.048l.437.053Z" fill="#6FA2A7"/></g></symbol><symbol id="s-whatsapp"><g fill="none"><path fill-rule="evenodd" clip-rule="evenodd" d="M12.5 25C19.404 25 25 19.404 25 12.5S19.404 0 12.5 0 0 5.596 0 12.5 5.596 25 12.5 25Z" fill="#6FA2A7"/><path fill-rule="evenodd" clip-rule="evenodd" d="M12.912 19.454h-.003a7.427 7.427 0 0 1-3.552-.904l-3.94 1.033 1.054-3.851a7.42 7.42 0 0 1-.992-3.716c.001-4.099 3.336-7.433 7.433-7.433a7.387 7.387 0 0 1 5.258 2.18 7.387 7.387 0 0 1 2.175 5.258c-.002 4.098-3.335 7.432-7.433 7.433Zm-3.373-2.25.226.134c.949.563 2.036.86 3.144.861h.003a6.187 6.187 0 0 0 6.178-6.178 6.14 6.14 0 0 0-1.808-4.37 6.136 6.136 0 0 0-4.368-1.812 6.187 6.187 0 0 0-6.18 6.177 6.17 6.17 0 0 0 .944 3.288l.147.234-.624 2.28 2.338-.614Zm7.118-3.415c-.047-.077-.17-.124-.356-.217-.186-.093-1.099-.542-1.27-.604-.17-.062-.293-.093-.417.093s-.48.604-.588.728c-.108.124-.217.14-.402.047-.186-.093-.785-.29-1.494-.922a5.6 5.6 0 0 1-1.033-1.287c-.109-.186-.012-.286.081-.379.084-.083.186-.217.279-.325.093-.109.123-.186.185-.31s.031-.232-.015-.325-.418-1.007-.573-1.38c-.15-.362-.303-.312-.418-.318a7.385 7.385 0 0 0-.355-.007.682.682 0 0 0-.496.233c-.17.186-.65.635-.65 1.549 0 .914.666 1.797.759 1.921.092.124 1.31 2 3.172 2.805.443.191.79.305 1.06.39.444.142.849.122 1.169.074.357-.053 1.099-.449 1.254-.883.154-.434.154-.805.108-.883Z" fill="#FDFDFD"/></g></symbol></svg>