<svg width="25" height="25" fill="none" xmlns="http://www.w3.org/2000/svg"><path fill-rule="evenodd" clip-rule="evenodd" d="M12.5 25C19.404 25 25 19.404 25 12.5S19.404 0 12.5 0 0 5.596 0 12.5 5.596 25 12.5 25Z" fill="#6FA2A7"/><path fill-rule="evenodd" clip-rule="evenodd" d="M12.674 11.798c-.976 0-6.007-2.853-6.007-2.853V8.5a1 1 0 0 1 1-1H17.68a1 1 0 0 1 1.002 1l-.008.5s-4.976 2.798-6 2.798Zm0 1.376c1.07 0 6-2.674 6-2.674l.008 6a1 1 0 0 1-1.001 1H7.668a1 1 0 0 1-1.001-1l.008-6s5.023 2.674 6 2.674Z" fill="#fff"/></svg>