<svg width="25" height="25" fill="none" xmlns="http://www.w3.org/2000/svg"><path fill-rule="evenodd" clip-rule="evenodd" d="M12.5 0C5.596 0 0 5.596 0 12.5S5.596 25 12.5 25 25 19.404 25 12.5 19.404 0 12.5 0Zm-.348 10.593-.026-.433c-.08-1.12.612-2.145 1.705-2.542.402-.141 1.084-.159 1.53-.035.175.053.507.23.743.388l.428.291.473-.15c.262-.08.611-.212.769-.3.149-.08.28-.123.28-.097 0 .15-.324.662-.595.945-.367.397-.262.432.481.167.446-.15.455-.15.367.018-.052.088-.323.397-.612.68-.49.485-.516.538-.516.944 0 .627-.297 1.933-.594 2.648-.551 1.342-1.731 2.728-2.912 3.425-1.661.98-3.873 1.227-5.736.653-.62-.194-1.687-.688-1.687-.776 0-.027.324-.062.717-.071a4.924 4.924 0 0 0 2.343-.653l.472-.283-.542-.185c-.77-.265-1.46-.874-1.635-1.448-.052-.185-.035-.194.455-.194l.507-.009-.428-.203c-.508-.256-.97-.688-1.198-1.13-.166-.317-.376-1.12-.315-1.183.017-.026.201.027.41.098.604.22.683.167.333-.203-.656-.671-.857-1.669-.542-2.613l.149-.424.577.574c1.18 1.156 2.57 1.845 4.162 2.048l.437.053Z" fill="#6FA2A7"/></svg>